<svg xmlns="http://www.w3.org/2000/svg" viewBox="0 0 24 24" fill="#fff"><path d="M12.442,2.017C13.534,2,14.617,2.008,15.7,2a5.189,5.189,0,0,0,1.458,3.475,5.878,5.878,0,0,0,3.533,1.492v3.358a8.938,8.938,0,0,1-3.5-.808,10.416,10.416,0,0,1-1.35-.775c-.008,2.433.009,4.866-.016,7.291A6.371,6.371,0,0,1,14.7,19.317a6.212,6.212,0,0,1-4.925,2.675,6.08,6.08,0,0,1-3.4-.859,6.284,6.284,0,0,1-3.042-4.758c-.016-.417-.025-.833-.008-1.242A6.273,6.273,0,0,1,10.6,9.567c.016,1.233-.034,2.466-.034,3.7a2.86,2.86,0,0,0-3.65,1.766A3.3,3.3,0,0,0,6.8,16.375a2.835,2.835,0,0,0,2.916,2.392,2.8,2.8,0,0,0,2.309-1.342,1.92,1.92,0,0,0,.341-.883c.084-1.492.05-2.975.059-4.467C12.434,8.717,12.417,5.367,12.442,2.017Z"/></svg>