<svg xmlns="http://www.w3.org/2000/svg" viewBox="0 0 24 24" fill="#fff"><path d="M19.049,4.907A9.91,9.91,0,0,0,3.456,16.864L2.049,22,7.3,20.621a9.91,9.91,0,0,0,4.734,1.208h0A9.912,9.912,0,0,0,19.048,4.908Zm-7.008,15.25a8.221,8.221,0,0,1-4.195-1.15l-.3-.18-3.118.817.833-3.039-.195-.312a8.239,8.239,0,1,1,15.215-4.38,8.255,8.255,0,0,1-8.24,8.243Zm4.516-6.172c-.246-.125-1.465-.722-1.692-.8s-.391-.125-.559.125-.64.8-.785.973-.288.187-.535.062a6.8,6.8,0,0,1-1.992-1.23A7.547,7.547,0,0,1,9.616,11.4c-.145-.246-.016-.382.11-.5s.246-.289.371-.434a1.645,1.645,0,0,0,.247-.414.458.458,0,0,0-.02-.434c-.063-.125-.559-1.344-.762-1.84S9.156,7.352,9,7.344s-.31-.008-.473-.008a.917.917,0,0,0-.66.309A2.78,2.78,0,0,0,7,9.712a4.819,4.819,0,0,0,1.011,2.562,11.046,11.046,0,0,0,4.23,3.739c.59.254,1.051.406,1.41.524a3.421,3.421,0,0,0,1.559.1,2.548,2.548,0,0,0,1.672-1.176,2.061,2.061,0,0,0,.145-1.176c-.058-.111-.222-.171-.472-.3Z" fill-rule="evenodd"/></svg>